<mxfile host="app.diagrams.net" agent="Mozilla/5.0 (Windows NT 10.0; Win64; x64) AppleWebKit/537.36 (KHTML, like Gecko) Chrome/138.0.0.0 Safari/537.36 Edg/138.0.0.0" version="27.2.0">
  <diagram id="okqcCJbLS5xt4spzUam4" name="Page-1">
    <mxGraphModel dx="864" dy="474" grid="1" gridSize="10" guides="1" tooltips="1" connect="1" arrows="1" fold="1" page="1" pageScale="1" pageWidth="850" pageHeight="1100" math="0" shadow="0">
      <root>
        <mxCell id="0" />
        <mxCell id="1" parent="0" />
        <mxCell id="2" value="&#xa;&#xa;&#xa;&#xa;&#xa;&#xa;&#xa;users&#xa;&#xa;id (PK)&#xa;username&#xa;password&#xa;nama&#xa;created_at&#xa;updated_at" style="shape=swimlane;childLayout=stackLayout;horizontal=1;startSize=20;fontStyle=1" parent="1" vertex="1">
          <mxGeometry x="40" y="39" width="160" height="140" as="geometry" />
        </mxCell>
        <mxCell id="3" value="&#xa;&#xa;&#xa;&#xa;&#xa;roles&#xa;&#xa;id (PK)&#xa;name&#xa;created_at&#xa;updated_at" style="shape=swimlane;childLayout=stackLayout;horizontal=1;startSize=20;movable=1;resizable=1;rotatable=1;deletable=1;editable=1;locked=0;connectable=1;fontStyle=1" parent="1" vertex="1">
          <mxGeometry x="300" y="20" width="160" height="140" as="geometry">
            <mxRectangle x="300" y="20" width="130" height="90" as="alternateBounds" />
          </mxGeometry>
        </mxCell>
        <mxCell id="4" value="&#xa;&#xa;&#xa;&#xa;&#xa;user_roles&#xa;&#xa;user_id (FK)&#xa;role_id (FK)&#xa;created_at&#xa;updated_at" style="shape=swimlane;childLayout=stackLayout;horizontal=1;startSize=20;fontStyle=1" parent="1" vertex="1">
          <mxGeometry x="170" y="219" width="160" height="140" as="geometry" />
        </mxCell>
        <mxCell id="5" value="&#xa;&#xa;&#xa;&#xa;&#xa;&#xa;&#xa;menus&#xa;&#xa;id (PK)&#xa;name&#xa;path&#xa;parent_id (FK)&#xa;created_at&#xa;updated_at" style="shape=swimlane;childLayout=stackLayout;horizontal=1;startSize=20;fontStyle=1" parent="1" vertex="1">
          <mxGeometry x="540" y="41" width="160" height="140" as="geometry" />
        </mxCell>
        <mxCell id="6" value="&#xa;&#xa;&#xa;&#xa;&#xa;role_menus&#xa;&#xa;role_id (FK)&#xa;menu_id (FK)&#xa;created_at&#xa;updated_at" style="shape=swimlane;childLayout=stackLayout;horizontal=1;startSize=20;fontStyle=1" parent="1" vertex="1">
          <mxGeometry x="420" y="219" width="160" height="140" as="geometry" />
        </mxCell>
        <mxCell id="8" style="endArrow=block;" parent="1" source="2" target="4" edge="1">
          <mxGeometry relative="1" as="geometry" />
        </mxCell>
        <mxCell id="9" style="endArrow=block;" parent="1" source="3" target="4" edge="1">
          <mxGeometry relative="1" as="geometry" />
        </mxCell>
        <mxCell id="10" style="endArrow=block;" parent="1" source="3" target="6" edge="1">
          <mxGeometry relative="1" as="geometry" />
        </mxCell>
        <mxCell id="11" style="endArrow=block;" parent="1" source="5" target="6" edge="1">
          <mxGeometry relative="1" as="geometry" />
        </mxCell>
      </root>
    </mxGraphModel>
  </diagram>
</mxfile>
